<svg xmlns="http://www.w3.org/2000/svg" xmlns:xlink="http://www.w3.org/1999/xlink" width="19" height="18" viewBox="0 0 19 18"><defs><path id="ey73a" d="M746.96 1714.15a.5.5 0 0 1-.27-.92 7.01 7.01 0 0 0 2.15-2.06l-.5-.29a.5.5 0 1 1 .5-.86l.5.28c.37-.78.6-1.63.66-2.52h-.55a.5.5 0 1 1 0-1h.55a6.94 6.94 0 0 0-.69-2.57l-.47.27a.5.5 0 0 1-.5-.87l.47-.26a7.05 7.05 0 0 0-1.86-1.86l-.27.47a.5.5 0 0 1-.86-.5l.27-.47a6.94 6.94 0 0 0-2.57-.69v.63a.5.5 0 1 1-1 0v-.63c-.9.07-1.74.3-2.52.67l.29.49a.5.5 0 1 1-.87.5l-.28-.49a7.05 7.05 0 0 0-1.88 1.86l.5.29a.5.5 0 0 1-.5.86l-.5-.29a6.94 6.94 0 0 0-.7 2.58h.56a.5.5 0 1 1 0 1h-.56c.06.9.3 1.76.67 2.55l.53-.3a.5.5 0 1 1 .5.86l-.53.3c.54.8 1.25 1.49 2.1 2.02a.5.5 0 1 1-.54.85 8 8 0 1 1 8.43.03.5.5 0 0 1-.26.07zm-3.94-7.87a1 1 0 0 1 .49.13l2.71-1.56a.5.5 0 1 1 .5.86l-2.7 1.57a1 1 0 1 1-1-1z"/></defs><g><g transform="translate(-734 -1698)"><use fill="#008ed6" xlink:href="#ey73a"/></g></g></svg>